<svg xmlns="http://www.w3.org/2000/svg" xmlns:xlink="http://www.w3.org/1999/xlink" version="1.0" x="0px" y="0px" viewBox="0 0 50 62.5" enable-background="new 0 0 50 50" xml:space="preserve"><path d="M25.1,39.3c0.7,0,1.2-0.6,1.2-1.2v-2.9c3.2-0.4,5.5-2.4,5.5-5.1c0-4-3.5-5.2-6.2-6.2c-2.9-1-4.3-1.7-4.3-3.4  c0-0.9,0.3-1.7,1-2.2c0.7-0.5,1.7-0.9,2.8-0.9c0,0,0,0,0,0c1.5,0,3.4,0.5,3.8,2.7c0.1,0.7,0.8,1.1,1.5,1c0.7-0.1,1.1-0.8,1-1.5  c-0.5-2.5-2.4-4.2-5-4.6V12c0-0.7-0.6-1.2-1.2-1.2s-1.2,0.6-1.2,1.2v2.9c-1.2,0.2-2.3,0.6-3.1,1.3c-1.3,1-1.9,2.5-1.9,4.2  c0,3.6,3.3,4.8,5.9,5.8c2.8,1,4.6,1.7,4.6,3.8c0,1.6-1.8,2.7-4.2,2.7c-2.2,0-3.9-1.1-4.4-3c-0.2-0.7-0.9-1.1-1.5-0.9  c-0.7,0.2-1.1,0.9-0.9,1.5c0.7,2.6,2.8,4.4,5.5,4.8V38C23.8,38.7,24.4,39.3,25.1,39.3z"/><text x="0" y="65" fill="#000000" font-size="5px" font-weight="bold" font-family="'Helvetica Neue', Helvetica, Arial-Unicode, Arial, Sans-serif">Created by Focus Lab</text><text x="0" y="70" fill="#000000" font-size="5px" font-weight="bold" font-family="'Helvetica Neue', Helvetica, Arial-Unicode, Arial, Sans-serif">from the Noun Project</text></svg>